<svg width="40" height="40" viewBox="0 0 40 40" fill="none" xmlns="http://www.w3.org/2000/svg">
<path d="M18.4863 4.43636L10.9143 2.959C10.5856 2.89461 10.2533 3.04628 10.0854 3.33559C9.97221 3.5309 7.29826 8.19032 6.13554 14.1498C5.86729 15.5249 5.74919 16.89 5.77666 18.1879C5.78947 19.2044 5.91185 20.2277 6.14043 21.218C6.20543 21.4987 6.28111 21.7774 6.36717 22.0523C7.01323 24.115 8.12285 25.5243 9.5352 26.1066L7.89976 34.921L4.37773 34.2337C3.4857 34.0598 2.5656 34.556 2.22624 35.3998C2.16887 35.5429 2.13408 35.6909 2.10478 35.8417C2.07671 35.9845 2.04588 36.1267 2.03581 36.2723C2.00377 36.7334 2.14384 37.1951 2.42247 37.5635C2.70659 37.9392 3.12437 38.1986 3.58641 38.2889L12.1777 39.9652C12.9227 40.1105 13.7124 39.7794 14.1397 39.1535C14.2514 38.9896 14.3368 38.808 14.3905 38.617C14.4565 38.3832 14.5099 38.1299 14.5218 37.8873C14.5437 37.4411 14.4024 36.9928 14.1336 36.6367C13.8507 36.2622 13.4295 36.0004 12.9687 35.9104L9.43938 35.2216L11.0754 26.4047C12.5177 26.3916 13.9865 25.5939 15.3018 24.0973C15.4095 23.9752 15.5124 23.8498 15.614 23.7225C16.5796 22.518 17.3877 21.0007 17.9809 19.299C18.287 18.4195 18.5293 17.5168 18.7076 16.6028C19.8706 10.6436 19.1443 5.32075 19.1128 5.09706C19.0661 4.76594 18.8147 4.50044 18.4863 4.43636ZM12.8946 37.5998C12.9544 37.6886 12.9584 37.7957 12.9434 37.8986C12.9297 37.9932 12.9126 38.0988 12.8778 38.1882C12.8143 38.353 12.6568 38.4604 12.478 38.4256L3.88701 36.7493C3.78355 36.7291 3.69292 36.6614 3.64287 36.5689C3.57451 36.4432 3.61174 36.3126 3.63676 36.1807C3.65935 36.0623 3.67644 35.9454 3.77043 35.8603C3.85252 35.7858 3.96819 35.7523 4.07713 35.7736L12.6684 37.45C12.7936 37.4744 12.8638 37.5543 12.8946 37.5998ZM11.1783 4.60878L17.6221 5.8661C17.7713 7.3578 18.071 11.6745 17.1683 16.3025C17.0962 16.6715 17.0126 17.0343 16.9208 17.3911H7.34557C7.3712 16.4377 7.48045 15.4486 7.67516 14.4501C8.57664 9.83125 10.4794 5.93629 11.1783 4.60878ZM15.7669 20.5448C15.3674 21.3593 14.8889 22.1402 14.3112 22.8412C13.4689 23.8641 12.5802 24.5111 11.7245 24.7412C11.2933 24.8557 10.8401 24.87 10.4086 24.7504C9.68108 24.5477 9.0457 23.985 8.5446 23.1491C7.96538 22.1762 7.65807 21.0489 7.49205 19.9362C7.44353 19.6124 7.40813 19.2862 7.38341 18.9597H16.4371C16.2424 19.4995 16.0205 20.0299 15.7669 20.5448Z" fill="#1C2D37"/>
<path d="M15.7932 13.6148C15.8176 13.6169 15.8417 13.6181 15.8655 13.6181C16.2665 13.6181 16.6086 13.312 16.6459 12.9049C16.793 11.2918 16.8342 9.62461 16.7679 7.9498C16.7505 7.51676 16.3895 7.17954 15.9531 7.19693C15.5201 7.21402 15.1832 7.57871 15.2003 8.01175C15.264 9.6185 15.2247 11.2167 15.0834 12.7624C15.044 13.1939 15.362 13.5754 15.7932 13.6148Z" fill="#1C2D37"/>
<path d="M37.9322 36.0329C37.8763 35.7458 37.8147 35.4552 37.6755 35.1949C37.5565 34.9718 37.3862 34.775 37.1884 34.6178C36.7496 34.2687 36.1731 34.1262 35.622 34.2339L32.096 34.9218L30.3754 26.1034C33.3991 24.8467 34.8792 19.8382 33.7693 14.1497C32.6065 8.19022 29.9323 3.5308 29.8194 3.33549C29.6515 3.04618 29.3186 2.89481 28.9905 2.9589L21.4182 4.43625C21.0901 4.50034 20.8384 4.76584 20.7917 5.09696C20.7602 5.32065 20.0342 10.6435 21.1969 16.6027C22.3069 22.2912 25.5616 26.3759 28.8358 26.404L30.5564 35.2224L27.0307 35.9103C26.2964 36.0534 25.6937 36.6415 25.524 37.3687C25.4236 37.8005 25.4901 38.2629 25.6269 38.6794C25.7599 39.085 26.0312 39.4411 26.3864 39.6773C26.8048 39.9557 27.3282 40.0613 27.8217 39.9651L36.413 38.2888C37.4411 38.088 38.1333 37.0626 37.9322 36.0329ZM22.2831 5.866L28.7265 4.60868C29.4257 5.9368 31.3285 9.83146 32.2296 14.45C32.2696 14.6548 32.3053 14.8589 32.338 15.0625H22.5214C21.8885 10.9273 22.1479 7.22495 22.2831 5.866ZM36.3385 36.5993C36.308 36.6448 36.2381 36.7245 36.1127 36.7489L27.5217 38.4255C27.4134 38.4466 27.2968 38.4133 27.2153 38.3391C27.1222 38.2552 27.1033 38.1344 27.081 38.0175C27.0578 37.8979 27.0243 37.7712 27.0758 37.654C27.1216 37.55 27.2196 37.4715 27.3313 37.4499L35.9223 35.7732C36.0987 35.7387 36.2583 35.8492 36.3221 36.0107C36.3877 36.1761 36.4453 36.4406 36.3385 36.5993ZM28.718 24.8318C28.0414 24.7912 27.4085 24.4814 26.8698 24.0853C26.3312 23.6892 25.8664 23.1985 25.4554 22.6729C25.2063 22.3543 24.9775 22.0202 24.7654 21.6759C24.3622 21.0223 23.993 20.2865 23.6719 19.4878C23.2993 18.5638 23.0136 17.6049 22.8043 16.6311H32.5187C32.6187 18.0584 32.5559 19.5183 32.2245 20.9142C32.1299 21.3125 32.0118 21.7055 31.8656 22.0879C31.315 23.5271 30.4886 24.4604 29.5224 24.743C29.2618 24.8183 28.9893 24.8476 28.718 24.8318Z" fill="#1C2D37"/>
<path d="M20.6213 0.784302C20.6213 0.351257 20.2701 0 19.837 0C19.4037 0 19.0527 0.351257 19.0527 0.784302V3.33282C19.0527 3.76587 19.4037 4.11713 19.837 4.11713C20.2701 4.11713 20.6213 3.76587 20.6213 3.33282V0.784302Z" fill="#1C2D37"/>
<path d="M16.6548 2.96818C16.8025 3.2114 17.061 3.34568 17.3262 3.34568C17.4648 3.34568 17.6055 3.30875 17.7324 3.23154C18.1026 3.00663 18.2207 2.52415 17.9958 2.15397L17.029 0.562173C16.8041 0.1923 16.3219 0.0741966 15.9514 0.299111C15.5812 0.524026 15.4634 1.00651 15.6883 1.37669L16.6548 2.96818Z" fill="#1C2D37"/>
<path d="M22.0941 3.23162C22.2211 3.30883 22.3618 3.34575 22.5003 3.34575C22.7655 3.34575 23.024 3.21147 23.1717 2.96825L24.1382 1.37676C24.3631 1.00658 24.2453 0.524097 23.8751 0.299182C23.5046 0.0742675 23.0225 0.192065 22.7975 0.562243L21.8311 2.15404C21.6058 2.52422 21.7239 3.0067 22.0941 3.23162Z" fill="#1C2D37"/>
<path d="M28.1815 9.76698C28.4799 10.5848 28.7497 11.4137 28.9859 12.2517C29.0793 12.5831 29.1306 12.932 29.4501 13.1242C29.7312 13.293 30.0989 13.2664 30.3522 13.058C30.5899 12.8627 30.687 12.5456 30.6119 12.2493C30.5091 11.8425 30.387 11.4393 30.2634 11.038C30.1358 10.6227 30.0003 10.2095 29.8578 9.79902C29.7873 9.59577 29.7235 9.38612 29.6387 9.18836C29.581 9.05317 29.4849 8.93598 29.364 8.85267C29.0879 8.66224 28.7107 8.67048 28.443 8.87342C28.1726 9.07942 28.0646 9.44776 28.1815 9.76698Z" fill="#1C2D37"/>
<path d="M16.2101 15.9405C16.2101 16.3754 15.8573 16.7281 15.4224 16.7281C14.9872 16.7281 14.6348 16.3754 14.6348 15.9405C14.6348 15.5053 14.9872 15.1528 15.4224 15.1528C15.8573 15.1528 16.2101 15.5053 16.2101 15.9405Z" fill="#1C2D37"/>
<path d="M28.5245 6.60699C28.5245 7.04187 28.1718 7.39465 27.7369 7.39465C27.302 7.39465 26.9492 7.04187 26.9492 6.60699C26.9492 6.17181 27.302 5.81934 27.7369 5.81934C28.1718 5.81934 28.5245 6.17181 28.5245 6.60699Z" fill="#1C2D37"/>
</svg>
