<svg width="40" height="40" viewBox="0 0 40 40" fill="none" xmlns="http://www.w3.org/2000/svg">
<g clip-path="url(#clip0_4218_5269)">
<path d="M22.6758 25.3187C22.6758 28.9981 25.6586 31.9809 29.338 31.9809C33.0171 31.9809 35.9999 28.9981 35.9999 25.3187C35.9999 21.6395 33.0171 18.6567 29.338 18.6567C25.6602 18.6608 22.6798 21.6411 22.6758 25.3187ZM29.338 19.989C32.2815 19.989 34.6676 22.3751 34.6676 25.3187C34.6676 28.2622 32.2815 30.6483 29.338 30.6483C26.3944 30.6483 24.0083 28.2622 24.0083 25.3187C24.0116 22.3767 26.3958 19.9922 29.338 19.989Z" fill="#1C2D37"/>
<path d="M25.5312 38.6431H33.1454V39.9753H25.5312V38.6431Z" fill="#1C2D37"/>
<path d="M22.6758 35.978H36.0002V37.3106H22.6758V35.978Z" fill="#1C2D37"/>
<path d="M8.01971 35.978H9.35226V37.3106H8.01971V35.978Z" fill="#1C2D37"/>
<path d="M4.02344 37.3105H5.35572V38.6431H4.02344V37.3105Z" fill="#1C2D37"/>
<path d="M8.0872 32.2293C11.5658 26.1707 13.7485 19.4556 14.4968 12.5095L20.6926 18.6686C20.8165 18.792 20.984 18.8616 21.159 18.8624C21.195 18.8627 21.2313 18.8597 21.2667 18.8538C21.478 18.8194 21.6597 18.6855 21.7551 18.4942C23.011 15.9874 22.5192 12.9579 20.5346 10.9773L19.9898 10.4322H24.6758C25.0437 10.4325 25.3423 10.1345 25.3423 9.76651C25.3426 9.69448 25.3308 9.62299 25.3082 9.55499C24.4234 6.8942 21.9335 5.09991 19.1295 5.10259H18.2635L21.5906 1.75617C21.8502 1.49547 21.8492 1.07377 21.5884 0.814144C21.5379 0.763885 21.4799 0.721957 21.4162 0.690243C18.9083 -0.56705 15.8771 -0.075475 13.8953 1.91018L13.2591 2.54635C13.0516 2.75518 12.8589 2.97772 12.6815 3.21262C12.5063 2.97772 12.3149 2.75518 12.109 2.54635L11.4729 1.91018C9.49258 -0.0741312 6.46304 -0.565706 3.95678 0.690243C3.62754 0.854728 3.49396 1.25492 3.65845 1.58389C3.69016 1.64759 3.73209 1.70564 3.78235 1.75617L7.11318 5.10259H6.23862C3.43457 5.09991 0.944439 6.8942 0.0599266 9.55499C-0.0567184 9.90385 0.131687 10.2812 0.480816 10.3978C0.548814 10.4207 0.620306 10.4322 0.692336 10.4322H5.37372L4.82893 10.9773C2.84435 12.9579 2.35251 15.9874 3.60819 18.4942C3.70387 18.6855 3.88556 18.8194 4.09654 18.8538C4.13229 18.8597 4.1683 18.8627 4.20459 18.8624C4.38063 18.8624 4.54941 18.7928 4.67412 18.6686L10.4437 12.9331C9.72936 19.3172 7.32497 25.3951 3.47838 30.5398C2.58284 30.3046 1.67495 30.1194 0.75899 29.9856L0.34267 29.9437L0.209361 31.27L0.59773 31.3079C1.264 31.4033 1.92598 31.538 2.58446 31.6904C2.45115 31.8576 2.31784 32.0274 2.17996 32.1922L3.20181 33.0469C8.32156 26.9598 11.3737 19.4029 11.9174 11.4675L12.6842 10.7056L13.2583 11.2764C12.5579 19.7628 9.64497 27.9174 4.81012 34.9269L5.90131 35.6904C6.42514 34.9427 6.92478 34.1668 7.4091 33.3761C10.5255 34.8667 13.2771 37.0225 15.4702 39.6916L16.5007 38.8474C15.2039 37.2708 13.7181 35.8595 12.0765 34.6458H39.9987V33.3132H10.1027C9.44958 32.9189 8.77551 32.5617 8.0872 32.2293ZM20.9144 17.009L13.8754 10.0106C15.6758 9.47302 17.626 9.96083 18.9612 11.2829L19.5974 11.9193C20.9302 13.2497 21.4344 15.1991 20.9144 17.009ZM23.6593 9.09997H18.1431C16.8584 8.48852 15.409 8.31544 14.0165 8.60759C14.9859 7.2444 16.555 6.43487 18.2278 6.43514H19.1271C21.0103 6.43219 22.7463 7.45296 23.6593 9.09997ZM14.199 3.48838L14.8354 2.85221C16.1669 1.51912 18.1171 1.01464 19.9277 1.53498L15.9785 5.50763C14.6967 5.97931 13.5964 6.84313 12.8334 7.97598C12.5235 6.34618 13.0347 4.668 14.2011 3.48838H14.199ZM10.5289 2.85221L11.1651 3.48838C11.4618 3.79128 11.7193 4.13046 11.9314 4.4976C11.6295 5.19935 11.4573 5.94948 11.4223 6.71224C10.8243 6.18976 10.1355 5.78177 9.39045 5.50763L5.44038 1.53498C7.25052 1.01491 9.20016 1.51939 10.5308 2.85221H10.5289ZM6.23647 6.43514H7.13603C8.80991 6.43353 10.3811 7.24279 11.3516 8.60678C9.95997 8.31571 8.51104 8.48879 7.22714 9.09997H1.70881C2.62155 7.45377 4.35617 6.43326 6.23862 6.43514H6.23647ZM4.45373 17.009C3.93367 15.1991 4.43814 13.2497 5.77096 11.9193L6.40713 11.2829C7.36556 10.3269 8.66531 9.79177 10.0194 9.79607C10.519 9.79634 11.016 9.86757 11.4957 10.0079L4.45373 17.009Z" fill="#1C2D37"/>
</g>
<defs>
<clipPath id="clip0_4218_5269">
<rect width="40" height="40" fill="white"/>
</clipPath>
</defs>
</svg>
