<svg width="40" height="40" viewBox="0 0 40 40" fill="none" xmlns="http://www.w3.org/2000/svg">
<path d="M21.8172 23.2073C19.6427 23.2073 17.599 22.4145 15.9918 20.9673C14.3918 22.3927 12.2972 23.2073 10.1445 23.2073C5.30813 23.2073 1.38086 19.28 1.38086 14.4582V13.4763C1.38086 9.69453 4.47904 6.61816 8.28268 6.61816H23.7154C27.4827 6.61816 30.5445 9.69453 30.5445 13.4763V14.4582C30.5445 19.28 26.6318 23.2073 21.8172 23.2073ZM15.9918 19.5782C16.1518 19.5782 16.2972 19.6436 16.4063 19.7527C17.8463 21.2291 19.7663 22.0363 21.8172 22.0363C25.9845 22.0363 29.3809 18.6327 29.3809 14.4509V13.4691C29.3809 10.3273 26.8427 7.77453 23.7154 7.77453H8.28268C5.11904 7.7818 2.5445 10.3345 2.5445 13.4763V14.4582C2.5445 18.64 5.9554 22.0436 10.1372 22.0436C12.2027 22.0436 14.13 21.2291 15.57 19.76C15.6863 19.6436 15.8318 19.5782 15.9918 19.5782Z" fill="#1C2D37"/>
<path d="M21.8381 20.8798C19.2491 20.8798 17.0163 19.338 15.9981 17.1344C14.98 19.3453 12.7472 20.8798 10.1581 20.8798C6.61633 20.8798 3.73633 17.9998 3.73633 14.458V13.4762C3.73633 10.9744 5.77269 8.93799 8.27451 8.93799H23.7072C26.2091 8.93799 28.2454 10.9744 28.2454 13.4762V14.458C28.2527 17.9998 25.3727 20.8798 21.8381 20.8798ZM15.9981 13.8762C16.3181 13.8762 16.58 14.138 16.58 14.458C16.58 17.3525 18.9363 19.7162 21.8381 19.7162C24.74 19.7162 27.0963 17.3598 27.0963 14.458V13.4762C27.0963 11.6144 25.5836 10.1016 23.7218 10.1016H8.28178C6.41996 10.1016 4.90724 11.6144 4.90724 13.4762V14.458C4.90724 17.3525 7.2636 19.7162 10.1654 19.7162C13.0672 19.7162 15.4236 17.3598 15.4236 14.458C15.4163 14.138 15.6781 13.8762 15.9981 13.8762Z" fill="#1C2D37"/>
<path d="M28.7255 38.6181C24.231 38.6181 20.5801 34.9672 20.5801 30.4726V29.8908C20.5801 29.5708 20.8419 29.309 21.1619 29.309H24.071C24.391 29.309 24.6528 29.5708 24.6528 29.8908V30.4726C24.6528 32.7199 26.4783 34.5454 28.7255 34.5454C30.9728 34.5454 32.7983 32.7199 32.7983 30.4726V4.2908C32.7983 3.9708 33.0601 3.70898 33.3801 3.70898H36.2892C36.6092 3.70898 36.871 3.9708 36.871 4.2908V30.4726C36.871 34.9672 33.2201 38.6181 28.7255 38.6181ZM21.7437 30.4726C21.7437 34.3199 24.8783 37.4544 28.7255 37.4544C32.5728 37.4544 35.7074 34.3199 35.7074 30.4726V4.87262H33.9619V30.4726C33.9619 33.3599 31.6128 35.709 28.7255 35.709C25.8383 35.709 23.4892 33.3599 23.4892 30.4726H21.7437Z" fill="#1C2D37"/>
<path d="M25.2359 30.4728H19.4178C19.0978 30.4728 18.8359 30.211 18.8359 29.891V27.5638C18.8359 27.2438 19.0978 26.9819 19.4178 26.9819H25.2359C25.5559 26.9819 25.8178 27.2438 25.8178 27.5638V29.891C25.8178 30.211 25.5559 30.4728 25.2359 30.4728ZM19.9996 29.3092H24.6541V28.1456H19.9996V29.3092Z" fill="#1C2D37"/>
<path d="M38.0363 4.87275H31.0545C30.7345 4.87275 30.4727 4.61093 30.4727 4.29093V1.96365C30.4727 1.64365 30.7345 1.38184 31.0545 1.38184H38.0363C38.3563 1.38184 38.6181 1.64365 38.6181 1.96365V4.29093C38.6181 4.61093 38.3563 4.87275 38.0363 4.87275ZM31.6363 3.70911H37.4545V2.54547H31.6363V3.70911Z" fill="#1C2D37"/>
<path d="M36.29 15.3453H33.3809C33.0609 15.3453 32.7991 15.0835 32.7991 14.7635C32.7991 14.4435 33.0609 14.1816 33.3809 14.1816H36.29C36.61 14.1816 36.8718 14.4435 36.8718 14.7635C36.8718 15.0835 36.61 15.3453 36.29 15.3453Z" fill="#1C2D37"/>
<path d="M36.29 11.8546H33.3809C33.0609 11.8546 32.7991 11.5927 32.7991 11.2727C32.7991 10.9527 33.0609 10.6909 33.3809 10.6909H36.29C36.61 10.6909 36.8718 10.9527 36.8718 11.2727C36.8718 11.5927 36.61 11.8546 36.29 11.8546Z" fill="#1C2D37"/>
<path d="M36.29 27.5635H33.3809C33.0609 27.5635 32.7991 27.3017 32.7991 26.9817C32.7991 26.6617 33.0609 26.3999 33.3809 26.3999H36.29C36.61 26.3999 36.8718 26.6617 36.8718 26.9817C36.8718 27.3017 36.61 27.5635 36.29 27.5635Z" fill="#1C2D37"/>
</svg>
