<svg width="56" height="56" viewBox="0 0 56 56" fill="none" xmlns="http://www.w3.org/2000/svg">
<path d="M51.3333 49V22.4248C51.3333 19.338 51.3333 17.7946 50.5309 16.5992C49.7287 15.4039 48.3079 14.8307 45.4664 13.6843L31.4664 8.03591C29.7547 7.34531 28.8988 7 28 7C27.1012 7 26.2453 7.34531 24.5336 8.03591L10.5337 13.6843C7.69213 14.8307 6.27136 15.4039 5.46902 16.5992C4.66666 17.7946 4.66666 19.338 4.66666 22.4248V49" stroke="#EED26E" stroke-width="1.5" stroke-linecap="round" stroke-linejoin="round"/>
<path d="M37.3333 44.3333V48.9999M18.6667 44.3333V48.9999" stroke="#EED26E" stroke-width="1.5" stroke-linecap="round" stroke-linejoin="round"/>
<path d="M17.5 32.6666L18.0659 30.403C18.9147 27.0076 19.3392 25.3101 20.605 24.3217C21.8709 23.3333 23.6208 23.3333 27.1206 23.3333H28.8794C32.3792 23.3333 34.129 23.3333 35.395 24.3217C36.6609 25.3101 37.0853 27.0076 37.9342 30.403L38.5 32.6666" stroke="#EED26E" stroke-width="1.5" stroke-linecap="round" stroke-linejoin="round"/>
<path d="M39.6667 32.6667H16.3333C15.0447 32.6667 14 33.7114 14 35.0001V42.0001C14 43.2888 15.0447 44.3334 16.3333 44.3334H39.6667C40.9554 44.3334 42 43.2888 42 42.0001V35.0001C42 33.7114 40.9554 32.6667 39.6667 32.6667Z" stroke="#EED26E" stroke-width="1.5" stroke-linecap="round" stroke-linejoin="round"/>
<path d="M19.8333 38.4766V38.4999" stroke="#EED26E" stroke-width="1.5" stroke-linecap="round" stroke-linejoin="round"/>
<path d="M36.1667 38.4766V38.4999" stroke="#EED26E" stroke-width="1.5" stroke-linecap="round" stroke-linejoin="round"/>
</svg>
