<svg width="57" height="56" viewBox="0 0 57 56" fill="none" xmlns="http://www.w3.org/2000/svg">
<path d="M51.8333 48.9999H49.5C46.1134 48.9999 43.1486 46.9958 42.5 44.3333C41.8513 46.9958 38.8866 48.9999 35.5 48.9999C32.1134 48.9999 29.1486 46.9958 28.5 44.3333C27.8513 46.9958 24.8866 48.9999 21.5 48.9999C18.1134 48.9999 15.1485 46.9958 14.5 44.3333C13.8514 46.9958 10.8865 48.9999 7.49996 48.9999H5.16663" stroke="#EED26E" stroke-width="1.5" stroke-linecap="round" stroke-linejoin="round"/>
<path d="M44.8334 7L44.2153 7.20603C41.1353 8.23275 39.595 8.74608 38.7142 9.96823C37.8334 11.1904 37.8334 12.8137 37.8334 16.0604V39.6667" stroke="#EED26E" stroke-width="1.5" stroke-linecap="round" stroke-linejoin="round"/>
<path d="M26.1666 7L25.5485 7.20603C22.4684 8.23275 20.9284 8.74608 20.0475 9.96823C19.1666 11.1904 19.1666 12.8137 19.1666 16.0604V39.6667" stroke="#EED26E" stroke-width="1.5" stroke-linecap="round" stroke-linejoin="round"/>
<path d="M19.1666 16.3333H37.8333M19.1666 25.6666H37.8333M19.1666 34.9999H37.8333" stroke="#EED26E" stroke-width="1.5" stroke-linecap="round" stroke-linejoin="round"/>
</svg>
