<svg width="56" height="56" viewBox="0 0 56 56" fill="none" xmlns="http://www.w3.org/2000/svg">
<path d="M42 7V18.6667M14 7V18.6667" stroke="#EED26E" stroke-width="1.5" stroke-linecap="round" stroke-linejoin="round"/>
<path d="M47.8334 9.33325V12.8333M47.8334 12.8333V16.3333M47.8334 12.8333H51.3334M8.16669 9.33325V12.8333M8.16669 12.8333V16.3333M8.16669 12.8333H4.66669" stroke="#EED26E" stroke-width="1.5" stroke-linecap="round" stroke-linejoin="round"/>
<path d="M42 12.8333H14" stroke="#EED26E" stroke-width="1.5" stroke-linecap="round" stroke-linejoin="round"/>
<path d="M16.9786 44.3333H39.0215C41.909 44.3333 43.3526 44.3332 43.9497 43.6272C45.3047 42.0249 42.7089 39.9072 41.7618 38.8397C40.6945 37.6371 39.9138 37.3333 38.3364 37.3333H17.6637C16.0862 37.3333 15.3056 37.6371 14.2383 38.8397C13.2911 39.9072 10.6954 42.0249 12.0504 43.6272C12.6473 44.3332 14.0911 44.3333 16.9786 44.3333Z" stroke="#EED26E" stroke-width="1.5" stroke-linecap="round" stroke-linejoin="round"/>
<path d="M21 18.6667V37.3334M35 18.6667V37.3334" stroke="#EED26E" stroke-width="1.5" stroke-linecap="round" stroke-linejoin="round"/>
<path d="M37.3334 44.3333V48.9999M18.6667 44.3333V48.9999" stroke="#EED26E" stroke-width="1.5" stroke-linecap="round" stroke-linejoin="round"/>
</svg>
