<svg width="56" height="56" viewBox="0 0 56 56" fill="none" xmlns="http://www.w3.org/2000/svg">
<path d="M37.3334 23.3333L42.3486 24.8378C45.5528 25.7991 47.1548 26.2798 48.0774 27.5197C49 28.7597 49 30.4324 49 33.7775V51.3333" stroke="#EED26E" stroke-width="1.5" stroke-linejoin="round"/>
<path d="M18.6666 21H25.6666M18.6666 30.3333H25.6666" stroke="#EED26E" stroke-width="1.5" stroke-linecap="round" stroke-linejoin="round"/>
<path d="M28 51.3334V44.3334C28 42.1335 28 41.0336 27.3166 40.3502C26.6332 39.6667 25.5332 39.6667 23.3334 39.6667H21C18.8002 39.6667 17.7002 39.6667 17.0168 40.3502C16.3334 41.0336 16.3334 42.1335 16.3334 44.3334V51.3334" stroke="#EED26E" stroke-width="1.5" stroke-linejoin="round"/>
<path d="M4.66663 51.3333H51.3333" stroke="#EED26E" stroke-width="1.5" stroke-linecap="round"/>
<path d="M7 51.3334V15.6736C7 9.81523 7 6.88601 8.84609 5.43265C10.6922 3.97928 13.4106 4.76837 18.8475 6.34652L30.5142 9.73293C33.7951 10.6853 35.4356 11.1614 36.3844 12.4593C37.3333 13.7571 37.3333 15.5248 37.3333 19.0601V51.3334" stroke="#EED26E" stroke-width="1.5" stroke-linecap="round" stroke-linejoin="round"/>
</svg>
