<svg width="56" height="56" viewBox="0 0 56 56" fill="none" xmlns="http://www.w3.org/2000/svg">
<path d="M28 20.9999C28 10.4999 32.6667 9.33325 37.3334 9.33325C37.3334 16.3333 33.8334 20.9999 28 20.9999ZM28 20.9999C28 10.4999 23.3334 9.33325 18.6667 9.33325C18.6667 16.3333 22.1667 20.9999 28 20.9999Z" stroke="#EED26E" stroke-width="1.5" stroke-linecap="round" stroke-linejoin="round"/>
<path d="M23.3333 9.33341C23.3333 9.33341 24.5 5.83341 28 4.66675C31.5 5.83341 32.6666 9.33341 32.6666 9.33341" stroke="#EED26E" stroke-width="1.5" stroke-linecap="round" stroke-linejoin="round"/>
<path d="M28 21V35" stroke="#EED26E" stroke-width="1.5" stroke-linecap="round" stroke-linejoin="round"/>
<path d="M28 30.3334C28.5833 28.7778 30.8 25.6667 35 25.6667" stroke="#EED26E" stroke-width="1.5" stroke-linecap="round" stroke-linejoin="round"/>
<path d="M30.6854 35H25.3146C20.5257 35 18.1313 35 16.9496 36.3923C15.7678 37.7846 16.4256 39.8307 17.7413 43.9231L17.9597 44.6026C18.995 47.8228 19.5126 49.4328 20.8915 50.3715L20.9532 50.4128C22.3475 51.3333 24.2317 51.3333 28 51.3333C31.7683 51.3333 33.6525 51.3333 35.0467 50.4128L35.1085 50.3715C36.4875 49.4328 37.005 47.8228 38.0403 44.6026L38.2587 43.9231C39.5743 39.8307 40.232 37.7846 39.0504 36.3923C37.8686 35 35.4744 35 30.6854 35Z" stroke="#EED26E" stroke-width="1.5" stroke-linecap="round" stroke-linejoin="round"/>
</svg>
