<svg width="70" height="70" viewBox="0 0 70 70" fill="none" xmlns="http://www.w3.org/2000/svg">
<path d="M66.4906 61.3842H42.0414C41.3945 61.3842 40.8693 60.8566 40.8693 60.2085V57.8094C40.8693 53.291 37.2002 49.6149 32.6901 49.6149H8.17921C7.55461 49.6149 7.03335 49.0996 7.01878 48.5211C7.03232 47.9046 7.48487 47.2174 8.11084 47.2174H23.3183C25.3356 47.2174 26.9762 45.7124 26.9762 43.863C26.9762 41.9112 25.2671 40.1985 23.3183 40.1985H8.11084C3.70834 40.1985 0.0697423 43.8875 0 48.4397C0 48.4456 0 48.5602 0 48.566C0.0673433 53.0148 3.73627 56.634 8.17921 56.634H32.6899C33.3293 56.634 33.8504 57.1616 33.8504 57.8097V60.209C33.8504 64.7274 37.5241 68.4035 42.0412 68.4035H66.4906C68.4254 68.4035 70 66.8289 70 64.8936C70 62.9583 68.4261 61.3842 66.4906 61.3842ZM66.4901 66.0646H42.0407C38.8144 66.0646 36.1894 63.4384 36.1894 60.2099V57.8106C36.1894 55.8722 34.6189 54.2953 32.6894 54.2953H8.1787C5.00739 54.2953 2.387 51.7101 2.33902 48.4586C2.3882 45.1949 4.97809 42.5394 8.11015 42.5394H23.3181C23.9591 42.5394 24.6365 43.2202 24.6365 43.8642C24.6365 44.4911 23.9521 44.8789 23.3181 44.8789H8.11084C6.26498 44.8789 4.72602 46.4887 4.67924 48.5223C4.72363 50.4151 6.29291 51.9556 8.17921 51.9556H32.6899C35.9097 51.9556 38.5296 54.5818 38.5296 57.8104V60.2095C38.5296 62.1479 40.1047 63.7248 42.0414 63.7248H66.4901C67.1358 63.7248 67.6599 64.2495 67.6599 64.8946C67.6599 65.5398 67.1358 66.0646 66.4901 66.0646Z" fill="#EED26E"/>
<path d="M15.1306 34.3508H12.791V42.5395H15.1306V34.3508Z" fill="#EED26E"/>
<path d="M13.9589 15.634C8.68779 15.634 4.60059 22.8656 4.60059 29.0868C4.60059 35.8259 9.60198 36.6904 13.9589 36.6904C18.3163 36.6904 23.3172 35.8259 23.3172 29.0868C23.3172 22.8656 19.23 15.634 13.9589 15.634ZM13.9589 34.3507C8.77724 34.3507 6.94012 32.9733 6.94012 29.0866C6.94012 24.188 10.2447 17.9736 13.9589 17.9736C17.6731 17.9736 20.9777 24.1882 20.9777 29.0866C20.9777 32.9733 19.1404 34.3507 13.9589 34.3507Z" fill="#EED26E"/>
<path d="M59.5827 54.2373H57.2432V63.5956H59.5827V54.2373Z" fill="#EED26E"/>
<path d="M57.1096 6.92889C54.2138 3.53997 49.9984 1.59644 45.5443 1.59644C37.1592 1.59644 30.3369 8.41816 30.3369 16.8039C30.3369 19.0399 30.8107 21.194 31.7465 23.2068C31.9448 23.6331 32.3677 23.8841 32.8087 23.8835C32.9731 23.8835 33.141 23.849 33.3012 23.7741C33.8861 23.5015 34.1412 22.8061 33.8691 22.2206C33.0778 20.5185 32.6765 18.696 32.6765 16.8033C32.6765 9.70796 38.4488 3.93563 45.5442 3.93563C49.3126 3.93563 52.8805 5.581 55.3319 8.44934C55.7495 8.94131 56.4899 8.99803 56.9802 8.57855C57.4716 8.15889 57.5301 7.42017 57.1096 6.92889Z" fill="#EED26E"/>
<path d="M51.328 29.6517C51.1133 29.0429 50.447 28.7235 49.8348 28.9387C48.7994 29.3054 47.7168 29.5371 46.6143 29.6277C45.9703 29.681 45.4912 30.2453 45.544 30.8894C45.5944 31.5007 46.1061 31.9633 46.7091 31.9633C46.7406 31.9633 46.7728 31.9621 46.8062 31.9599C48.1089 31.8528 49.3903 31.5785 50.6162 31.1451C51.2252 30.929 51.5439 30.2606 51.328 29.6517Z" fill="#EED26E"/>
<path d="M39.696 39.03H37.3564V48.3883H39.696V39.03Z" fill="#EED26E"/>
<path d="M58.4111 5.10596C51.8789 5.10596 49.0527 27.2316 49.0527 38.5183C49.0527 51.1766 51.8515 56.5771 58.4111 56.5771C64.9706 56.5771 67.7694 51.1761 67.7694 38.5183C67.7694 27.2314 64.9432 5.10596 58.4111 5.10596ZM58.4111 54.2374C55.9586 54.2374 51.3923 54.2374 51.3923 38.5183C51.3923 19.5044 56.3277 7.44566 58.4111 7.44566C60.4951 7.44566 65.4298 19.5046 65.4298 38.5183C65.4298 54.2374 60.8635 54.2374 58.4111 54.2374Z" fill="#EED26E"/>
<path d="M38.5253 17.9736C33.2542 17.9736 29.167 26.0307 29.167 32.9617C29.167 40.4139 34.1684 41.3697 38.5253 41.3697C42.8827 41.3697 47.8836 40.414 47.8836 32.9617C47.8836 26.0307 43.7964 17.9736 38.5253 17.9736ZM38.5253 39.03C34.0801 39.03 31.5065 38.0375 31.5065 32.9617C31.5065 27.3864 34.8111 20.3133 38.5253 20.3133C42.2395 20.3133 45.5441 27.3859 45.5441 32.9617C45.5441 38.0375 42.9705 39.03 38.5253 39.03Z" fill="#EED26E"/>
</svg>
