<svg width="70" height="70" viewBox="0 0 70 70" fill="none" xmlns="http://www.w3.org/2000/svg">
<g clip-path="url(#clip0_3718_4342)">
<path d="M69.9392 66.7372L67.3324 59.5547L68.901 59.5609H68.9051C69.2697 59.5609 69.607 59.3673 69.7906 59.052C69.975 58.7357 69.9765 58.345 69.7946 58.0271L66.3204 51.9531L67.4071 51.9575H67.4112C67.7758 51.9575 68.1131 51.7637 68.2967 51.4486C68.4811 51.1323 68.4826 50.7416 68.3008 50.4237L65.1135 44.8513C65.4314 44.8142 65.7167 44.63 65.8803 44.3493C66.0646 44.0329 66.0661 43.6422 65.8844 43.3244L61.7562 36.1074C61.5744 35.7895 61.2369 35.5928 60.8707 35.5914C60.8693 35.5914 60.8679 35.5914 60.8666 35.5914C60.502 35.5914 60.1647 35.7852 59.9811 36.1003L59.2655 37.3281L57.0657 31.2667H65.466C65.7171 31.2667 65.9595 31.1745 66.1472 31.0076C66.8139 30.4144 67.1963 29.5644 67.1963 28.6757C67.1963 26.9538 65.7953 25.5528 64.0733 25.5528H60.3519C59.6493 23.388 57.5985 21.8463 55.2603 21.8463C54.7379 21.8463 54.2238 21.9219 53.728 22.0703L48.646 8.06651C48.643 8.05776 48.6396 8.04915 48.6362 8.04041C48.2078 6.95305 47.176 6.243 46.0074 6.23124C44.841 6.22496 43.7927 6.90878 43.3426 7.98752C43.3336 8.00898 43.3254 8.03071 43.3179 8.05271L37.269 25.8657C37.087 26.4017 37.374 26.9838 37.9099 27.1657C38.4455 27.3476 39.0279 27.0608 39.2099 26.5248L39.9779 24.2632L41.421 26.0462C41.6258 26.2993 41.9408 26.4406 42.2637 26.4254C42.5888 26.4107 42.8877 26.2426 43.069 25.9722L45.6753 22.0844L48.9178 28.3591C49.0938 28.6998 49.4452 28.9135 49.8283 28.9135H49.836C50.2219 28.9106 50.5737 28.6912 50.7457 28.3457L52.5274 24.7693L57.9222 39.6342L55.7953 43.2839C55.611 43.6004 55.6095 43.991 55.7914 44.3088C55.9591 44.6021 56.2591 44.7922 56.592 44.821L53.3621 50.3636C53.1777 50.6799 53.1762 51.0706 53.358 51.3883C53.5399 51.7062 53.8774 51.903 54.2435 51.9043L55.3703 51.9089L51.8473 57.9546C51.6629 58.2709 51.6614 58.6616 51.8432 58.9795C52.0251 59.2973 52.3626 59.4941 52.7287 59.4955L57.6251 59.5153V61.9182C56.914 61.6103 56.134 61.4402 55.3223 61.4402C52.5452 61.4402 50.1776 63.37 49.6052 66.0617H34.7427C34.1726 63.4008 31.7843 61.4402 29.0268 61.4402C27.3258 61.4402 25.7444 62.1776 24.6531 63.4073C24.4667 63.095 24.2586 62.798 24.0299 62.5187V54.2901L32.9924 54.3261H32.9965C33.3611 54.3261 33.6984 54.1324 33.882 53.8172C34.0664 53.5007 34.068 53.1102 33.8861 52.7923L27.9138 42.3511L30.6418 42.3621H30.6459C31.0105 42.3621 31.3478 42.1683 31.5314 41.8532C31.7158 41.5368 31.7174 41.1461 31.5355 40.8284L28.0753 34.7787L29.3726 32.5668C29.3813 32.5519 29.3898 32.5366 29.3977 32.5213C29.5964 32.1394 29.9512 32.0904 30.0945 32.0872C30.2371 32.0831 30.5947 32.1163 30.8109 32.4884L31.6814 33.9864C32.2302 34.9309 33.2463 35.4736 34.3382 35.4017C35.4283 35.3302 36.3667 34.6595 36.7873 33.6514C36.7962 33.63 36.8044 33.6083 36.8119 33.5863L37.8893 30.4134C38.0713 29.8775 37.7845 29.2953 37.2484 29.1134C36.7128 28.9311 36.1304 29.2184 35.9484 29.7543L34.8843 32.8882C34.7062 33.2814 34.3509 33.3466 34.2041 33.3563C34.0534 33.3657 33.6806 33.3468 33.4538 32.9566L32.5833 31.4586C32.0521 30.5443 31.1063 30.0151 30.0468 30.0379C28.9992 30.0624 28.0841 30.6269 27.5927 31.5498L26.902 32.7274L26.0215 31.188L26.8397 31.1913H26.8438C27.2084 31.1913 27.5457 30.9976 27.7293 30.6824C27.9137 30.366 27.9153 29.9753 27.7334 29.6575L21.2378 18.3014C21.0559 17.9835 20.7185 17.7867 20.3523 17.7854C20.3509 17.7854 20.3496 17.7854 20.3482 17.7854C19.9836 17.7854 19.6464 17.979 19.4627 18.2943L12.876 29.598C12.6916 29.9145 12.69 30.3051 12.8719 30.6229C13.0536 30.9408 13.3913 31.1376 13.7574 31.1389L14.6388 31.1425L12.9362 34.064L11.547 31.6353C11.3653 31.3174 11.0276 31.1206 10.6615 31.1192C10.6601 31.1192 10.6586 31.1192 10.6574 31.1192C10.2928 31.1192 9.95553 31.313 9.77187 31.6281L4.97394 39.8616C4.78959 40.1779 4.78795 40.5686 4.96984 40.8865C5.15172 41.2043 5.48912 41.4011 5.85536 41.4025L6.01524 41.4032L2.1851 47.9757C2.00075 48.292 1.99911 48.6827 2.181 49.0006C2.36289 49.3184 2.70042 49.5152 3.06652 49.5166L4.61754 49.5229L0.448909 56.6763C0.264562 56.9927 0.262923 57.3834 0.444809 57.7012C0.626696 58.0191 0.964232 58.2159 1.33033 58.2172L7.09167 58.2405V59.8834C7.09167 60.4495 7.55055 60.9084 8.11657 60.9084C8.6826 60.9084 9.14148 60.4495 9.14148 59.8834V58.2486L12.1058 58.2605V63.1467C11.5434 64.0052 11.1538 64.9917 10.9873 66.0617H9.14148V63.9829C9.14148 63.4169 8.6826 62.958 8.11657 62.958C7.55055 62.958 7.09167 63.4169 7.09167 63.9829V66.1407H1.02491C0.458885 66.1407 0 66.5996 0 67.1656C0 67.7316 0.458885 68.1905 1.02491 68.1905H68.942C69.3841 68.1905 69.7596 67.9101 69.9035 67.5179C70.0167 67.2747 70.0325 66.9942 69.9392 66.7372ZM55.2608 23.8961C56.8919 23.8961 58.2961 25.1115 58.5273 26.7232C58.5996 27.2279 59.032 27.6026 59.5419 27.6026H64.0737C64.6654 27.6026 65.1469 28.084 65.1469 28.6757C65.1469 28.8702 65.0959 29.055 64.9998 29.217H56.3472C56.339 29.217 56.3309 29.2181 56.3227 29.2183L54.4296 24.002C54.6994 23.9316 54.9779 23.8961 55.2608 23.8961ZM49.8117 25.6237L46.7002 19.6026C46.5337 19.2806 46.2097 19.0703 45.8479 19.0498C45.4856 19.0284 45.1401 19.2012 44.9384 19.5024L42.1402 23.6765L40.7574 21.9679L45.2456 8.75074C45.4448 8.31057 45.8581 8.27955 45.9869 8.28106C46.1134 8.28229 46.5378 8.32233 46.7249 8.78121L51.5622 22.1099L49.8117 25.6237ZM67.5136 66.062H64.0498V59.5414L65.1486 59.5458L67.5136 66.062ZM58.0354 51.4073C58.2197 51.091 58.2212 50.7003 58.0393 50.3824C57.8576 50.0646 57.5201 49.8679 57.154 49.8664L56.0271 49.8619L59.2549 44.3228C59.4392 44.0064 59.4407 43.6157 59.2588 43.2979C59.0912 43.0047 58.7911 42.8147 58.4583 42.7857L60.8588 38.6661L63.2284 42.8086C62.9104 42.8457 62.625 43.03 62.4615 43.3107C62.2771 43.6271 62.2756 44.0178 62.4575 44.3356L65.6406 49.9004L64.5539 49.8961C64.5526 49.8961 64.551 49.8961 64.5498 49.8961C64.1852 49.8961 63.848 50.0899 63.6644 50.405C63.48 50.7213 63.4785 51.1119 63.6602 51.4299L64.0009 52.0257L67.1345 57.5039L54.5126 57.4531L58.0354 51.4073ZM62 59.5331V66.0619H61.0381C60.8208 65.0483 60.3403 64.1361 59.675 63.3953V59.5236L62 59.5331ZM55.3224 63.4903C56.9609 63.4903 58.4004 64.5569 58.9163 66.062H51.7277C52.2414 64.5421 53.6698 63.4903 55.3224 63.4903ZM29.027 63.4903C30.6663 63.4903 32.1053 64.5566 32.6208 66.062H25.6086C25.5925 65.9579 25.5747 65.8544 25.5543 65.7519C26.1628 64.3775 27.523 63.4903 29.027 63.4903ZM21.9803 60.7862C20.9831 60.2174 19.8411 59.8748 18.6239 59.8226V58.2869L19.8662 58.292H19.8703C20.2349 58.292 20.5722 58.0983 20.7559 57.7831C20.9402 57.4667 20.9418 57.076 20.76 56.7582L19.3375 54.2712L21.9801 54.2819L21.9803 60.7862ZM17.3036 30.6408C17.4879 30.3245 17.4895 29.9338 17.3077 29.6159C17.1258 29.2981 16.7882 29.1013 16.4221 29.0999L15.5407 29.0964L20.34 20.8606L25.0728 29.1348L24.2547 29.1315C24.2534 29.1315 24.252 29.1315 24.2506 29.1315C23.8861 29.1315 23.5488 29.3253 23.3651 29.6404C23.1808 29.9569 23.1791 30.3474 23.361 30.6653L28.8752 40.3054L26.1471 40.2945C26.1458 40.2945 26.1443 40.2945 26.143 40.2945C25.7784 40.2945 25.4412 40.4881 25.2575 40.8034C25.0732 41.1197 25.0715 41.5104 25.2534 41.8282L31.2257 52.2694L18.1626 52.2167L16.6494 49.5714L18.1542 49.5774H18.1583C18.5229 49.5774 18.8602 49.3838 19.0438 49.0685C19.2282 48.7521 19.2298 48.3615 19.0479 48.0436L15.2708 41.4402L15.3847 41.4407H15.3888C15.7534 41.4407 16.0906 41.247 16.2743 40.9318C16.4586 40.6155 16.4603 40.2248 16.2784 39.9069L14.1115 36.1186L17.3036 30.6408ZM7.28244 49.0211C7.46678 48.7047 7.46842 48.314 7.28654 47.9962C7.10479 47.6783 6.76725 47.4815 6.40102 47.4802L4.84999 47.4739L8.68014 40.9012C8.86448 40.5849 8.86612 40.1942 8.68423 39.8763C8.50235 39.5585 8.16481 39.3617 7.79872 39.3603L7.63883 39.3596L10.6492 34.1938L13.6177 39.3837L13.5039 39.3833C13.5025 39.3833 13.501 39.3833 13.4998 39.3833C13.1352 39.3833 12.7979 39.577 12.6143 39.8922C12.4299 40.2085 12.4283 40.5992 12.6102 40.9171L16.3873 47.5205L14.8823 47.5145C14.5136 47.5067 14.1769 47.7069 13.9927 48.0234C13.8084 48.3397 13.8069 48.7304 13.9886 49.0483L18.0994 56.2351L3.1138 56.1747L7.28244 49.0211ZM16.5741 58.2787V60.0149C15.6975 60.2218 14.8812 60.5839 14.1557 61.0718V58.269L16.5741 58.2787ZM18.298 61.8649C20.8516 61.8649 22.9952 63.6294 23.5242 66.062H13.0718C13.6008 63.6296 15.7447 61.8649 18.298 61.8649Z" fill="#EED26E"/>
<path d="M9.56854 12.7027H16.0742C16.6403 12.7027 17.0991 12.2438 17.0991 11.6778C17.0991 11.1117 16.6403 10.6528 16.0742 10.6528H9.56854C8.5189 10.6528 7.64049 9.81024 7.61029 8.77372L7.60892 8.71359C7.56656 6.14162 9.61951 3.96581 12.1853 3.86319C13.7195 3.80155 15.1524 4.45517 16.1122 5.65581C16.4427 6.06906 17.0334 6.16307 17.4755 5.87241C18.0135 5.51902 18.639 5.33208 19.2842 5.33208C20.9152 5.33208 22.3195 6.54748 22.5508 8.15918C22.6232 8.66385 23.0555 9.03855 23.5653 9.03855H28.038C28.3473 9.03855 28.6497 9.16701 28.8677 9.39126C29.0702 9.59952 29.1776 9.86627 29.1699 10.1422C29.1649 10.3252 29.114 10.4994 29.023 10.653H20.1739C19.6078 10.653 19.149 11.1119 19.149 11.6779C19.149 12.2439 19.6078 12.7028 20.1739 12.7028H29.4898C29.741 12.7028 29.9834 12.6106 30.1711 12.4436C30.8133 11.8722 31.1953 11.0541 31.2189 10.1989C31.242 9.36488 30.9288 8.57051 30.337 7.96199C29.7354 7.34349 28.8975 6.98874 28.038 6.98874H24.3758C23.6733 4.824 21.6225 3.28227 19.2844 3.28227C18.5374 3.28227 17.8066 3.43682 17.1321 3.73377C15.7959 2.4305 14.0053 1.73972 12.1035 1.81488C8.43445 1.96164 5.49884 5.07148 5.55952 8.7498L5.56143 8.83398C5.62456 11.0034 7.38467 12.7027 9.56854 12.7027Z" fill="#EED26E"/>
</g>
<defs>
<clipPath id="clip0_3718_4342">
<rect width="70" height="70" fill="white"/>
</clipPath>
</defs>
</svg>
