<svg width="70" height="70" viewBox="0 0 70 70" fill="none" xmlns="http://www.w3.org/2000/svg">
<g clip-path="url(#clip0_3718_4364)">
<path d="M61.8953 45.7775C61.9855 45.3674 62.0306 44.9504 62.0306 44.5266C62.0306 42.067 60.4939 39.9 58.2599 39.0455C58.2503 36.3371 56.0423 34.1373 53.3298 34.1373C50.6201 34.1373 48.4134 36.3371 48.4039 39.0441C46.5308 39.7592 45.1472 41.3971 44.748 43.3563C44.6359 43.2988 44.5224 43.2428 44.4062 43.1922C44.5183 42.715 44.5744 42.2242 44.5744 41.7252C44.5744 39.0059 42.8558 36.6133 40.3689 35.7027C40.3689 35.6809 40.3689 35.659 40.3689 35.6371C40.3689 32.6772 37.9613 30.2695 35.0013 30.2695C32.04 30.2695 29.6296 32.6772 29.6296 35.6371V35.7027C27.1427 36.6133 25.4242 39.0059 25.4242 41.7252C25.4242 42.2242 25.4802 42.715 25.5923 43.1922C25.4761 43.2441 25.3626 43.2988 25.2505 43.3563C24.8513 41.3971 23.4677 39.7592 21.5947 39.0441C21.5851 36.3371 19.3785 34.1373 16.6687 34.1373C13.9589 34.1373 11.7523 36.3371 11.7427 39.0441C9.50737 39.8986 7.96792 42.067 7.96792 44.5266C7.96792 44.949 8.01304 45.3674 8.10327 45.7775C6.05933 46.7209 4.70991 48.7717 4.70991 51.1C4.70991 54.3348 7.34175 56.968 10.5779 56.968H13.0976V68.9062C13.0976 69.5105 13.5871 69.9986 14.19 69.9986H19.1501C19.7544 69.9986 20.2425 69.5092 20.2425 68.9062V56.9666H22.7623C24.2962 56.9666 25.7441 56.3732 26.8337 55.3205C27.2767 55.4176 27.7361 55.4695 28.2078 55.4695H31.1417V68.9062C31.1417 69.5105 31.6312 69.9986 32.2341 69.9986H37.7644C38.3687 69.9986 38.8568 69.5092 38.8568 68.9062V55.4695H41.7908C42.2625 55.4695 42.7218 55.4162 43.1648 55.3205C44.2544 56.3732 45.7023 56.9666 47.2363 56.9666H49.756V68.9062C49.756 69.5105 50.2455 69.9986 50.8484 69.9986H55.8085C56.4128 69.9986 56.9009 69.5092 56.9009 68.9062V56.9666H59.4207C62.6554 56.9666 65.2886 54.3348 65.2886 51.0986C65.2886 48.7703 63.9392 46.7209 61.8953 45.7775ZM18.0578 67.8139H15.2824V56.9666H18.0578V67.8139ZM22.7636 54.7805H10.5779C8.54761 54.7805 6.89604 53.1289 6.89604 51.0986C6.89604 49.3869 8.05816 47.9145 9.72202 47.5193C10.0365 47.4441 10.3031 47.2336 10.4466 46.9437C10.5916 46.6539 10.5998 46.3148 10.4699 46.0182C10.2607 45.541 10.1541 45.0393 10.1541 44.5266C10.1541 42.7711 11.4037 41.2508 13.1236 40.9131C13.408 40.857 13.6595 40.6902 13.8208 40.4482C13.9822 40.2062 14.041 39.9109 13.9849 39.6266C13.948 39.4393 13.9289 39.2492 13.9289 39.0619C13.9289 37.5512 15.158 36.3221 16.6687 36.3221C18.1794 36.3221 19.4085 37.5512 19.4085 39.0619C19.4085 39.2506 19.3894 39.4393 19.3525 39.6266C19.2951 39.9109 19.3539 40.2076 19.5166 40.4496C19.6792 40.6916 19.9294 40.8584 20.2138 40.9145C21.9351 41.2522 23.1833 42.7711 23.1833 44.5279C23.1833 44.7262 23.1669 44.923 23.1355 45.1158C22.2865 46.2096 21.7929 47.5809 21.7929 49.0533C21.7929 51.2313 22.8839 53.159 24.5464 54.3197C24.0091 54.6178 23.398 54.7805 22.7636 54.7805ZM36.672 67.8139H33.3279V55.4709H36.672V67.8139ZM28.2078 53.2848C25.8767 53.2848 23.9791 51.3857 23.9791 49.0533C23.9791 48.0471 24.3291 47.1119 24.9265 46.3791C24.9689 46.3367 25.0085 46.2902 25.0441 46.241C25.6033 45.6107 26.3539 45.1473 27.2234 44.9395C27.5392 44.8643 27.8058 44.6523 27.9494 44.3611C28.0929 44.0699 28.1011 43.7295 27.9685 43.4328C27.7306 42.8955 27.6089 42.3213 27.6089 41.7252C27.6089 39.7072 29.0431 37.9627 31.0187 37.5771C31.3044 37.5211 31.5574 37.3529 31.7187 37.1109C31.88 36.8676 31.9388 36.5709 31.88 36.2852C31.8349 36.0664 31.813 35.8545 31.813 35.6371C31.813 33.883 33.2417 32.4557 34.9986 32.4557C36.7527 32.4557 38.18 33.883 38.18 35.6371C38.18 35.8545 38.1582 36.0664 38.113 36.2852C38.0542 36.5709 38.1117 36.8689 38.2744 37.1109C38.4357 37.3543 38.6886 37.5211 38.9744 37.5771C40.95 37.9627 42.3841 39.7072 42.3841 41.7252C42.3841 42.3213 42.2638 42.8955 42.0246 43.4328C41.8933 43.7295 41.9001 44.0699 42.0437 44.3611C42.1873 44.6523 42.4539 44.8643 42.7697 44.9395C43.6392 45.1459 44.3884 45.6094 44.9476 46.2383C44.9845 46.2916 45.0269 46.3395 45.072 46.3846C45.6668 47.1174 46.0154 48.0498 46.0154 49.0547C46.0154 51.3885 44.1191 53.2861 41.7867 53.2861H28.2078V53.2848ZM54.7162 67.8139H51.9408V56.9666H54.7162V67.8139ZM59.422 54.7805H47.2363C46.6019 54.7805 45.9908 54.6178 45.4507 54.3184C47.1132 53.1576 48.2042 51.2299 48.2042 49.052C48.2042 47.5781 47.7093 46.2068 46.8603 45.1131C46.8289 44.9189 46.8125 44.7234 46.8125 44.5252C46.8125 42.7697 48.0621 41.2494 49.782 40.9117C50.0677 40.8557 50.3179 40.6889 50.4792 40.4469C50.6406 40.2049 50.6994 39.9096 50.6433 39.6238C50.6064 39.4379 50.5873 39.2479 50.5873 39.0592C50.5873 37.5484 51.8164 36.3193 53.3271 36.3193C54.8406 36.3193 56.071 37.5484 56.071 39.0592C56.071 39.2479 56.0519 39.4324 56.0136 39.6074C55.9521 39.8945 56.0082 40.1939 56.1695 40.4387C56.3308 40.6834 56.5837 40.8529 56.8722 40.9104C58.5921 41.2467 59.8418 42.767 59.8418 44.5238C59.8418 45.0365 59.7351 45.5383 59.5259 46.0154C59.396 46.3121 59.4043 46.6512 59.5492 46.941C59.6941 47.2309 59.9593 47.4414 60.2738 47.5166C61.9376 47.9131 63.0998 49.3842 63.0998 51.0959C63.1025 53.1289 61.4509 54.7805 59.422 54.7805ZM63.8052 2.67012C63.3814 2.67012 62.963 2.7125 62.5556 2.7959C61.4208 1.07324 59.4767 0 57.3753 0C55.3041 0 53.4078 1.01445 52.2607 2.69473C52.0748 2.67832 51.8888 2.67012 51.7015 2.67012C48.9043 2.67012 46.4748 4.58418 45.7365 7.19551C45.623 7.18867 45.5082 7.18457 45.3933 7.18457C43.322 7.18457 41.4257 8.20039 40.2787 9.8793C40.0927 9.86289 39.9068 9.85469 39.7195 9.85469C36.3042 9.85469 33.5261 12.6342 33.5261 16.0521C33.5261 19.4701 36.3042 22.2496 39.7195 22.2496L51.8957 22.2455H51.9107C55.2781 22.199 58.0193 19.4209 58.0193 16.0521C58.0193 15.7158 57.9919 15.3863 57.94 15.0637H63.8791H63.8955C67.2601 15.0117 69.9986 12.2322 69.9986 8.86621C69.9972 5.45098 67.2191 2.67012 63.8052 2.67012ZM51.8875 20.0594L39.7181 20.0635C37.5087 20.0635 35.7109 18.2643 35.7109 16.0521C35.7109 13.9809 37.2873 12.2719 39.3011 12.0627C39.2273 12.451 39.1959 12.8748 39.1959 13.382C39.1959 13.9863 39.6853 14.4744 40.2882 14.4744C40.8925 14.4744 41.3806 13.985 41.3806 13.382C41.3806 12.4783 41.4859 12.1338 41.7839 11.6197C41.788 11.6129 41.7908 11.6061 41.7949 11.5992C41.8003 11.5896 41.8072 11.5787 41.8126 11.5691C42.5031 10.2143 43.8744 9.37207 45.3919 9.37207C46.9615 9.37207 48.3957 10.2936 49.0437 11.7195C49.0478 11.7277 49.0519 11.7359 49.056 11.7441C49.0601 11.7523 49.0628 11.7592 49.0669 11.7674C49.2953 12.2104 49.4033 12.5645 49.4033 13.3834C49.4033 13.9877 49.8927 14.4758 50.4957 14.4758C51.0986 14.4758 51.588 13.9863 51.588 13.3834C51.588 12.8748 51.5539 12.4496 51.4732 12.0572C51.588 12.0477 51.7043 12.0422 51.8205 12.0422C54.0326 12.0422 55.8318 13.8414 55.8318 16.0535C55.8332 18.2301 54.064 20.0252 51.8875 20.0594ZM63.8695 12.8789H57.1416C56.0587 11.0701 54.0791 9.85605 51.8218 9.85605C51.3994 9.85605 50.9824 9.89844 50.5736 9.98047C49.9078 8.96738 48.9589 8.18125 47.8638 7.7041C48.3287 6.18516 49.6808 5.04902 51.2832 4.87813C51.2093 5.26504 51.1779 5.69023 51.1779 6.19609C51.1779 6.80039 51.6673 7.28848 52.2703 7.28848C52.8732 7.28848 53.3626 6.79902 53.3626 6.19609C53.3626 5.29238 53.4679 4.94785 53.766 4.43379C53.7701 4.42695 53.7728 4.42012 53.7755 4.41465C53.781 4.40371 53.7878 4.39414 53.7933 4.3832C54.4837 3.02832 55.855 2.18613 57.3726 2.18613C58.9408 2.18613 60.375 3.10898 61.0244 4.53769C61.0285 4.5459 61.0326 4.5541 61.0367 4.5623C61.0408 4.57051 61.0435 4.57734 61.0476 4.58555C61.2759 5.02852 61.3839 5.38262 61.3839 6.19746C61.3839 6.80176 61.8734 7.28984 62.4763 7.28984C63.0793 7.28984 63.5687 6.80039 63.5687 6.19746C63.5687 5.68887 63.5332 5.26367 63.4539 4.87129C63.5687 4.86172 63.6849 4.85625 63.8011 4.85625C66.0105 4.85625 67.8083 6.65547 67.8083 8.86758C67.8125 11.0441 66.0433 12.8406 63.8695 12.8789ZM13.2753 23.8574H1.09507C0.490772 23.8574 0.00268555 23.368 0.00268555 22.765C0.00268555 22.1621 0.492139 21.6727 1.09507 21.6727H13.2753C16.3925 21.6727 18.93 24.2088 18.93 27.3273C18.93 30.4459 16.3939 32.982 13.2753 32.982C10.1568 32.982 7.62065 30.4459 7.62065 27.3273C7.62065 26.723 8.11011 26.235 8.71304 26.235C9.31597 26.235 9.80542 26.7244 9.80542 27.3273C9.80542 29.24 11.3613 30.7959 13.274 30.7959C15.1867 30.7959 16.7425 29.24 16.7425 27.3273C16.7425 25.4146 15.188 23.8574 13.2753 23.8574ZM0.00268555 18.0332C0.00268555 17.4289 0.492139 16.9408 1.09507 16.9408H13.2876C13.8919 16.9408 14.38 17.4303 14.38 18.0332C14.38 18.6361 13.8906 19.1256 13.2876 19.1256H1.09507C0.492139 19.1256 0.00268555 18.6361 0.00268555 18.0332ZM15.1976 10.2156C15.1976 9.61133 15.6871 9.12324 16.29 9.12324H28.4703C30.383 9.12324 31.9388 7.56738 31.9388 5.65469C31.9388 3.74199 30.383 2.18613 28.4703 2.18613C26.5576 2.18613 25.0017 3.74199 25.0017 5.65469C25.0017 6.25898 24.5123 6.74707 23.9093 6.74707C23.3064 6.74707 22.8169 6.25762 22.8169 5.65469C22.8169 2.5375 25.3531 0 28.4716 0C31.5902 0 34.1263 2.53613 34.1263 5.65469C34.1263 8.77324 31.5902 11.3094 28.4716 11.3094H16.2914C15.6871 11.3094 15.1976 10.8199 15.1976 10.2156ZM15.1976 14.9516C15.1976 14.3473 15.6871 13.8592 16.29 13.8592H28.4826C29.0869 13.8592 29.575 14.3486 29.575 14.9516C29.575 15.5545 29.0855 16.0439 28.4826 16.0439H16.29C15.6871 16.0453 15.1976 15.5559 15.1976 14.9516Z" fill="#EED26E"/>
</g>
<defs>
<clipPath id="clip0_3718_4364">
<rect width="70" height="70" fill="white"/>
</clipPath>
</defs>
</svg>
