<svg width="100" height="80" viewBox="0 0 100 80" fill="none" xmlns="http://www.w3.org/2000/svg">
<path d="M99.5 56.4706C99.5 62.6606 94.1495 68.4173 85.1424 72.656C76.1746 76.8762 63.7504 79.5 50 79.5C36.2496 79.5 23.8255 76.8762 14.8576 72.656C5.85046 68.4173 0.5 62.6606 0.5 56.4706C0.5 50.2805 5.85046 44.5238 14.8576 40.2852C23.8255 36.065 36.2496 33.4412 50 33.4412C63.7504 33.4412 76.1746 36.065 85.1424 40.2852C94.1495 44.5238 99.5 50.2805 99.5 56.4706Z" fill="#1C2D37" fill-opacity="0.5" stroke="#1C2D37"/>
<ellipse opacity="0.5" cx="50" cy="56.5" rx="21" ry="10.5" fill="#1C2D37"/>
<ellipse cx="50" cy="56.5" rx="10" ry="4.5" fill="#1C2D37"/>
<path d="M57.1793 23.0065C57.1793 27.0494 53.9649 30.3268 49.9998 30.3268C46.0347 30.3268 42.8203 27.0494 42.8203 23.0065C42.8203 18.9637 46.0347 15.6863 49.9998 15.6863C53.9649 15.6863 57.1793 18.9637 57.1793 23.0065Z" stroke="#1C2D37" stroke-width="3"/>
<path d="M49.9999 4.18311C59.9908 4.18311 68.4614 12.6181 68.4614 22.8514C68.4614 33.2477 59.8528 40.5433 51.9014 45.5043C51.3219 45.8379 50.6665 46.0132 49.9999 46.0132C49.3332 46.0132 48.6778 45.8379 48.0983 45.5043C40.1617 40.495 31.5383 33.2837 31.5383 22.8514C31.5383 12.6181 40.009 4.18311 49.9999 4.18311Z" stroke="#1C2D37" stroke-width="3"/>
</svg>
