<svg width="85" height="85" viewBox="0 0 85 85" fill="none" xmlns="http://www.w3.org/2000/svg">
<path d="M5.17535 84.9595H14.1092C14.8555 84.9595 15.4612 84.3589 15.4612 83.6159C15.4612 82.8728 14.8555 82.2722 14.1092 82.2722H6.52732V56.7414C6.83557 56.5627 7.11813 56.3477 7.36825 56.0977L37.2279 27.5141C38.8624 28.1591 40.6376 28.5259 42.5006 28.5259C44.3636 28.5259 46.1388 28.1604 47.7746 27.5154L61.0686 40.2412C61.3309 40.4925 61.6689 40.6161 62.0069 40.6161C62.3611 40.6161 62.7153 40.4777 62.9803 40.2036C63.4981 39.6702 63.4819 38.8196 62.9451 38.3037L50.3136 26.2107C51.2208 25.6236 52.0563 24.9383 52.8053 24.167L64.266 35.1205C64.4012 35.3624 64.5999 35.5599 64.8514 35.6809L75.0845 45.4627C75.2197 45.6992 75.413 45.894 75.6604 46.0136L81.8214 51.9015C82.1283 52.2065 82.2973 52.611 82.2973 53.0409C82.2973 53.4709 82.1283 53.8753 81.8214 54.1803C81.3982 54.6009 80.7844 54.7568 80.2098 54.5794C79.9475 54.5028 79.7177 54.3698 79.5108 54.1615L68.1151 43.2537C67.577 42.7404 66.7212 42.7552 66.2034 43.29C65.6856 43.8234 65.7018 44.674 66.2385 45.1899L77.6154 56.0789C77.8763 56.3396 78.1643 56.5586 78.4752 56.74V82.2722H70.892C70.1457 82.2722 69.54 82.8728 69.54 83.6159C69.54 84.3589 70.1457 84.9595 70.892 84.9595H79.8259C80.5721 84.9595 81.1778 84.3589 81.1778 83.6159V57.2923C82.1242 57.1821 83.0287 56.779 83.7317 56.0789C84.5496 55.2674 84.9998 54.1884 84.9998 53.0396C84.9998 51.8908 84.5496 50.8131 83.7128 49.9828L77.5964 44.1365V24.4398H78.9484C79.6947 24.4398 80.3004 23.8392 80.3004 23.0961V17.7215C80.3004 16.9785 79.6947 16.3779 78.9484 16.3779H62.7248C61.9785 16.3779 61.3728 16.9785 61.3728 17.7215V23.0961C61.3728 23.8392 61.9785 24.4398 62.7248 24.4398H64.0767V31.2145L54.5007 22.0615C55.9825 19.8176 56.8504 17.1411 56.8504 14.2629C56.8504 9.28199 54.302 4.74311 50.0338 2.12164C49.397 1.73063 48.5655 1.92546 48.1735 2.55833C47.7801 3.18985 47.9774 4.01754 48.6129 4.4072C52.078 6.5369 54.1465 10.2199 54.1465 14.2629C54.1465 20.6453 48.9211 25.8372 42.4992 25.8372C36.0774 25.8372 30.852 20.6453 30.852 14.2629C30.852 7.88056 36.0787 2.68732 42.5006 2.68732C43.2469 2.68732 43.8526 2.0867 43.8526 1.34366C43.8526 0.600615 43.2469 0 42.5006 0C34.5875 0 28.1494 6.3985 28.1494 14.2629C28.1494 17.1169 29.0066 19.7719 30.464 22.0038L14.8649 36.964C14.3282 37.48 14.312 38.3305 14.8311 38.864C15.0961 39.1367 15.4503 39.2751 15.8046 39.2751C16.1425 39.2751 16.4805 39.1502 16.7428 38.8989L32.154 24.1214C32.9151 24.9101 33.7642 25.6128 34.6903 26.2134L5.47278 54.1803C5.28351 54.3685 5.05502 54.5015 4.77517 54.5834C4.21545 54.7527 3.60436 54.5996 3.18119 54.179C2.87429 53.874 2.7053 53.4696 2.7053 53.0396C2.7053 52.6096 2.87429 52.2052 3.16361 51.9176L12.3435 43.114C12.8802 42.598 12.8965 41.7475 12.3773 41.214C11.8581 40.6806 11.0024 40.6658 10.4656 41.1805L1.26815 50.0002C0.450207 50.8118 0 51.8908 0 53.0396C0 54.1884 0.450207 55.266 1.26815 56.0789C1.97253 56.779 2.87835 57.1821 3.82203 57.2923V83.6159C3.82338 84.3576 4.42771 84.9595 5.17535 84.9595ZM64.0767 19.0652H77.5964V21.7525H64.0767V19.0652ZM66.7807 24.4398H74.8925V41.5526L66.7807 33.7997V24.4398Z" fill="#364440"/>
<path d="M20.7188 72.8854C19.694 74.389 19.1519 76.1478 19.1519 77.9671V83.6548C19.1519 84.3979 19.7575 84.9985 20.5038 84.9985C21.2501 84.9985 21.8558 84.3979 21.8558 83.6548V77.9671C21.8558 76.6866 22.2371 75.4505 22.9577 74.3917C23.3768 73.7776 23.2145 72.9419 22.5967 72.5253C21.9788 72.1088 21.1379 72.27 20.7188 72.8854Z" fill="#364440"/>
<path d="M30.8182 83.6564V79.2411C30.8182 78.4981 30.2125 77.8975 29.4662 77.8975C28.7199 77.8975 28.1143 78.4981 28.1143 79.2411V83.6564C28.1143 84.3994 28.7199 85 29.4662 85C30.2125 85 30.8182 84.3994 30.8182 83.6564Z" fill="#364440"/>
<path d="M64.4972 84.9998C65.2435 84.9998 65.8492 84.3992 65.8492 83.6562V77.9685C65.8492 73.658 62.764 69.9173 58.512 69.0734L49.3524 67.2528V64.5157C50.8639 63.5228 52.1767 62.2127 53.1582 60.6017C53.5449 59.9661 53.3408 59.1398 52.7026 58.7555C52.0618 58.3725 51.233 58.5741 50.845 59.2083C49.0604 62.1375 45.9414 63.8842 42.5006 63.8842C37.1252 63.8842 32.7516 59.5388 32.7516 54.1951V50.8118C33.5141 50.9018 34.4834 50.9824 35.5826 50.9824C38.6326 50.9824 42.5872 50.3711 45.2641 47.6931C46.4781 48.8057 48.7021 50.2246 52.2497 50.5229V54.1951C52.2497 54.9381 52.8554 55.5388 53.6017 55.5388C54.348 55.5388 54.9537 54.9381 54.9537 54.1951V47.5453C54.9537 40.8405 49.5174 35.3221 42.8386 35.2468L42.5006 35.2441L42.2032 35.2455C35.5001 35.3127 30.0476 40.8297 30.0476 47.544V54.1938C30.0476 58.5029 32.2784 62.3014 35.6502 64.5184V67.2514L26.4906 69.0721C25.7578 69.2172 25.2833 69.9253 25.4306 70.6536C25.5591 71.2932 26.1242 71.7339 26.7542 71.7339C26.8421 71.7339 26.9313 71.7258 27.0206 71.707L36.1829 69.8863C37.2198 72.3399 39.6601 74.0692 42.5006 74.0692C45.3425 74.0692 47.7828 72.3399 48.8198 69.8863L57.9821 71.707C60.974 72.3009 63.1453 74.9331 63.1453 77.9671V83.6548C63.1453 84.3992 63.7496 84.9998 64.4972 84.9998ZM42.2357 37.9328L42.5006 37.9315L42.8062 37.9328C48.014 37.9919 52.2497 42.3037 52.2497 47.544V47.8235C48.0194 47.3908 46.4511 45.0314 46.3876 44.9319C46.1496 44.5396 45.7264 44.2937 45.2654 44.2829C44.7963 44.2923 44.3677 44.4925 44.1108 44.8728C41.442 48.7936 35.2365 48.4241 32.7529 48.0976V47.5426C32.7516 42.297 37.0035 37.9852 42.2357 37.9328ZM42.5006 71.3818C40.2145 71.3818 38.3541 69.533 38.3541 67.2595V65.85C39.6534 66.3082 41.0459 66.5702 42.5006 66.5702C43.9459 66.5702 45.3384 66.3068 46.6485 65.85V67.2595C46.6471 69.533 44.7868 71.3818 42.5006 71.3818Z" fill="#364440"/>
<path d="M54.1831 79.2411V83.6564C54.1831 84.3994 54.7888 85 55.5351 85C56.2814 85 56.887 84.3994 56.887 83.6564V79.2411C56.887 78.4981 56.2814 77.8975 55.5351 77.8975C54.7888 77.8975 54.1831 78.4981 54.1831 79.2411Z" fill="#364440"/>
<path d="M50.6112 12.3254C50.4301 11.7718 49.9109 11.3969 49.3255 11.3969H45.0952L43.7878 7.39685C43.6066 6.84461 43.0875 6.46973 42.5021 6.46973C41.9167 6.46973 41.3975 6.84461 41.2164 7.39685L39.909 11.3969H35.6787C35.0933 11.3969 34.5741 11.7718 34.393 12.3254C34.2118 12.8776 34.4105 13.485 34.8837 13.8263L38.3069 16.2986L36.9996 20.3C36.8184 20.8536 37.0171 21.4596 37.4903 21.8009C37.9649 22.1448 38.6057 22.1448 39.0802 21.8009L42.5007 19.3299L45.9239 21.8009C46.1605 21.9729 46.4404 22.0575 46.7189 22.0575C46.9974 22.0575 47.2773 21.9729 47.5138 21.8009C47.987 21.4596 48.1858 20.8536 48.0046 20.3L46.6973 16.2986L50.1205 13.8263C50.5936 13.485 50.7924 12.8776 50.6112 12.3254ZM44.3124 14.6996C43.8378 15.0409 43.6404 15.6469 43.8216 16.2005L44.1474 17.1962L43.2957 16.5821C43.0591 16.4101 42.7792 16.3255 42.5007 16.3255C42.2222 16.3255 41.9424 16.4101 41.7058 16.5821L40.854 17.1962L41.1799 16.2005C41.361 15.6469 41.1623 15.0409 40.6891 14.6996L39.8373 14.0842H40.8892C41.4746 14.0842 41.9937 13.7094 42.1749 13.1571L42.5007 12.1601L42.8266 13.1558C43.0077 13.708 43.5269 14.0829 44.1123 14.0829H45.1641L44.3124 14.6996Z" fill="#364440"/>
</svg>
